<svg xmlns="http://www.w3.org/2000/svg" xmlns:xlink="http://www.w3.org/1999/xlink" xmlns:lucid="lucid" width="592" height="1680"><g transform="translate(0 0)" lucid:page-tab-id="0_0"><path d="M0 0h592v1680H0z" fill="#fff"/><path d="M300 40h260v1600H300z" fill="#fff"/><path d="M343.33 40h43.34m21.66 0h43.34m21.66 0h43.34m21.66 0H560v19.75m0 19.76V119m0 19.77v39.5m0 19.75v39.5m0 19.76v39.5m0 19.76v39.5m0 19.76v39.5m0 19.76v39.5m0 19.76v39.5m0 19.76v39.5m0 19.76v39.5m0 19.76v39.5m0 19.76v39.5m0 19.76v39.5m0 19.76v39.5m0 19.76v39.5m0 19.76v39.5m0 19.75v39.5m0 19.76v39.52m0 19.75v39.5m0 19.76v39.5m0 19.76v39.5m0 19.75v39.5m0 19.76v39.52m0 19.75v39.5m0 19.76v39.5m0 19.76v39.5m0 19.75V1640h-21.67m-21.66 0h-43.34m-21.66 0h-43.34m-21.66 0h-43.34m-21.66 0H300v-19.75m0-19.76V1561m0-19.77v-39.5m0-19.75v-39.5m0-19.76v-39.5m0-19.76v-39.5m0-19.76v-39.5m0-19.76v-39.5m0-19.76v-39.5m0-19.76v-39.5m0-19.76v-39.5m0-19.76v-39.5m0-19.76v-39.5m0-19.76v-39.5m0-19.76v-39.5m0-19.76v-39.5m0-19.76v-39.5m0-19.75v-39.5m0-19.76v-39.52m0-19.75v-39.5m0-19.76v-39.5m0-19.76v-39.5m0-19.75v-39.5m0-19.76v-39.52m0-19.75v-39.5m0-19.76v-39.5m0-19.76V79.5m0-19.75V40h21.67" stroke="#000" stroke-width="2" fill="none"/><path d="M40 40h260v1600H40z" fill="#fff"/><path d="M83.33 40h43.34m21.66 0h43.34m21.66 0h43.34m21.66 0H300v19.75m0 19.76V119m0 19.77v39.5m0 19.75v39.5m0 19.76v39.5m0 19.76v39.5m0 19.76v39.5m0 19.76v39.5m0 19.76v39.5m0 19.76v39.5m0 19.76v39.5m0 19.76v39.5m0 19.76v39.5m0 19.76v39.5m0 19.76v39.5m0 19.76v39.5m0 19.76v39.5m0 19.75v39.5m0 19.76v39.52m0 19.75v39.5m0 19.76v39.5m0 19.76v39.5m0 19.75v39.5m0 19.76v39.52m0 19.75v39.5m0 19.76v39.5m0 19.76v39.5m0 19.75V1640h-21.67m-21.66 0h-43.34m-21.66 0h-43.34m-21.66 0H83.33m-21.66 0H40v-19.75m0-19.76V1561m0-19.77v-39.5m0-19.75v-39.5m0-19.76v-39.5m0-19.76v-39.5m0-19.76v-39.5m0-19.76v-39.5m0-19.76v-39.5m0-19.76v-39.5m0-19.76v-39.5m0-19.76v-39.5m0-19.76v-39.5m0-19.76v-39.5m0-19.76v-39.5m0-19.76v-39.5m0-19.76v-39.5m0-19.75v-39.5m0-19.76v-39.52m0-19.75v-39.5m0-19.76v-39.5m0-19.76v-39.5m0-19.75v-39.5m0-19.76v-39.52m0-19.75v-39.5m0-19.76v-39.5M40 119V79.5m0-19.75V40h21.67" stroke="#000" stroke-width="2" fill="none"/><path d="M60 100h200v120H60z" stroke="#000" stroke-width="2" fill="#fff"/><use xlink:href="#a" transform="matrix(1,0,0,1,65,105) translate(15.949999999999989 26.19999999999999)"/><use xlink:href="#b" transform="matrix(1,0,0,1,65,105) translate(86.85 26.19999999999999)"/><use xlink:href="#c" transform="matrix(1,0,0,1,65,105) translate(124.8 26.19999999999999)"/><use xlink:href="#d" transform="matrix(1,0,0,1,65,105) translate(32.125 47.79999999999999)"/><use xlink:href="#e" transform="matrix(1,0,0,1,65,105) translate(118.97500000000001 47.79999999999999)"/><use xlink:href="#f" transform="matrix(1,0,0,1,65,105) translate(18.575000000000003 69.39999999999999)"/><use xlink:href="#g" transform="matrix(1,0,0,1,65,105) translate(92.525 69.39999999999999)"/><use xlink:href="#h" transform="matrix(1,0,0,1,65,105) translate(112.525 69.39999999999999)"/><use xlink:href="#i" transform="matrix(1,0,0,1,65,105) translate(45.099999999999994 91)"/><use xlink:href="#j" transform="matrix(1,0,0,1,65,105) translate(111 91)"/><path d="M60 300h200v120H60z" stroke="#000" stroke-width="2" fill="#fff"/><use xlink:href="#a" transform="matrix(1,0,0,1,65,305) translate(25.099999999999994 37)"/><use xlink:href="#k" transform="matrix(1,0,0,1,65,305) translate(96 37)"/><use xlink:href="#d" transform="matrix(1,0,0,1,65,305) translate(12.099999999999994 58.6)"/><use xlink:href="#g" transform="matrix(1,0,0,1,65,305) translate(98.95 58.6)"/><use xlink:href="#l" transform="matrix(1,0,0,1,65,305) translate(118.95 58.6)"/><use xlink:href="#m" transform="matrix(1,0,0,1,65,305) translate(47.875 80.20000000000002)"/><use xlink:href="#n" transform="matrix(1,0,0,1,65,305) translate(86.775 80.20000000000002)"/><use xlink:href="#o" transform="matrix(1,0,0,1,65,305) translate(108.225 80.20000000000002)"/><path d="M60 500h200v120H60z" stroke="#000" stroke-width="2" fill="#fff"/><use xlink:href="#p" transform="matrix(1,0,0,1,65,505) translate(10.999999999999986 26.19999999999999)"/><use xlink:href="#b" transform="matrix(1,0,0,1,65,505) translate(91.8 26.19999999999999)"/><use xlink:href="#c" transform="matrix(1,0,0,1,65,505) translate(129.75 26.19999999999999)"/><use xlink:href="#d" transform="matrix(1,0,0,1,65,505) translate(20.099999999999994 47.79999999999999)"/><use xlink:href="#q" transform="matrix(1,0,0,1,65,505) translate(106.95 47.79999999999999)"/><use xlink:href="#r" transform="matrix(1,0,0,1,65,505) translate(139.9 47.79999999999999)"/><use xlink:href="#s" transform="matrix(1,0,0,1,65,505) translate(13.25 69.39999999999999)"/><use xlink:href="#g" transform="matrix(1,0,0,1,65,505) translate(93.10000000000001 69.39999999999999)"/><use xlink:href="#t" transform="matrix(1,0,0,1,65,505) translate(113.10000000000001 69.39999999999999)"/><use xlink:href="#u" transform="matrix(1,0,0,1,65,505) translate(48.074999999999996 91)"/><path d="M340 500h200v120H340z" stroke="#000" stroke-width="2" fill="#fff"/><use xlink:href="#v" transform="matrix(1,0,0,1,345,505) translate(11.549999999999997 26.19999999999999)"/><use xlink:href="#w" transform="matrix(1,0,0,1,345,505) translate(85.45 26.19999999999999)"/><use xlink:href="#x" transform="matrix(1,0,0,1,345,505) translate(119.45 26.19999999999999)"/><use xlink:href="#y" transform="matrix(1,0,0,1,345,505) translate(163.45 26.19999999999999)"/><use xlink:href="#z" transform="matrix(1,0,0,1,345,505) translate(23.424999999999997 47.79999999999999)"/><use xlink:href="#A" transform="matrix(1,0,0,1,345,505) translate(54.375 47.79999999999999)"/><use xlink:href="#c" transform="matrix(1,0,0,1,345,505) translate(117.325 47.79999999999999)"/><use xlink:href="#d" transform="matrix(1,0,0,1,345,505) translate(20.099999999999994 69.39999999999999)"/><use xlink:href="#q" transform="matrix(1,0,0,1,345,505) translate(106.95 69.39999999999999)"/><use xlink:href="#r" transform="matrix(1,0,0,1,345,505) translate(139.9 69.39999999999999)"/><use xlink:href="#B" transform="matrix(1,0,0,1,345,505) translate(57.574999999999996 91)"/><path d="M340 700h200v120H340z" stroke="#000" stroke-width="2" fill="#fff"/><use xlink:href="#C" transform="matrix(1,0,0,1,345,705) translate(30.57499999999999 15.399999999999993)"/><use xlink:href="#b" transform="matrix(1,0,0,1,345,705) translate(91.475 15.399999999999993)"/><use xlink:href="#D" transform="matrix(1,0,0,1,345,705) translate(129.425 15.399999999999993)"/><use xlink:href="#E" transform="matrix(1,0,0,1,345,705) translate(20.099999999999994 36.99999999999999)"/><use xlink:href="#F" transform="matrix(1,0,0,1,345,705) translate(93 36.99999999999999)"/><use xlink:href="#i" transform="matrix(1,0,0,1,345,705) translate(13.549999999999997 58.599999999999994)"/><use xlink:href="#G" transform="matrix(1,0,0,1,345,705) translate(79.45 58.599999999999994)"/><use xlink:href="#x" transform="matrix(1,0,0,1,345,705) translate(103.45 58.599999999999994)"/><use xlink:href="#H" transform="matrix(1,0,0,1,345,705) translate(147.45 58.599999999999994)"/><use xlink:href="#z" transform="matrix(1,0,0,1,345,705) translate(13.599999999999994 80.20000000000002)"/><use xlink:href="#A" transform="matrix(1,0,0,1,345,705) translate(44.55 80.20000000000002)"/><use xlink:href="#m" transform="matrix(1,0,0,1,345,705) translate(107.5 80.20000000000002)"/><use xlink:href="#r" transform="matrix(1,0,0,1,345,705) translate(146.4 80.20000000000002)"/><use xlink:href="#o" transform="matrix(1,0,0,1,345,705) translate(78.05 101.80000000000001)"/><path d="M60 900h200v120H60z" stroke="#000" stroke-width="2" fill="#fff"/><use xlink:href="#I" transform="matrix(1,0,0,1,65,904.9999999999999) translate(1.1499999999999915 47.8)"/><use xlink:href="#J" transform="matrix(1,0,0,1,65,904.9999999999999) translate(60.05 47.8)"/><use xlink:href="#k" transform="matrix(1,0,0,1,65,904.9999999999999) translate(119.95 47.8)"/><use xlink:href="#K" transform="matrix(1,0,0,1,65,904.9999999999999) translate(63.025 69.4)"/><path d="M60 1100h200v120H60z" stroke="#000" stroke-width="2" fill="#fff"/><use xlink:href="#L" transform="matrix(1,0,0,1,65,1105) translate(16.599999999999994 37)"/><use xlink:href="#M" transform="matrix(1,0,0,1,65,1105) translate(88.55 37)"/><use xlink:href="#N" transform="matrix(1,0,0,1,65,1105) translate(23.57499999999999 58.6)"/><use xlink:href="#g" transform="matrix(1,0,0,1,65,1105) translate(97.475 58.6)"/><use xlink:href="#O" transform="matrix(1,0,0,1,65,1105) translate(117.475 58.6)"/><use xlink:href="#P" transform="matrix(1,0,0,1,65,1105) translate(63.5 80.20000000000002)"/><path d="M340 1100h200v120H340z" stroke="#000" stroke-width="2" fill="#fff"/><g><use xlink:href="#Q" transform="matrix(1,0,0,1,345,1105) translate(22.57499999999999 47.8)"/><use xlink:href="#M" transform="matrix(1,0,0,1,345,1105) translate(82.57499999999999 47.8)"/><use xlink:href="#R" transform="matrix(1,0,0,1,345,1105) translate(60.55 69.4)"/></g><path d="M60 1300h200v120H60z" stroke="#000" stroke-width="2" fill="#fff"/><g><use xlink:href="#v" transform="matrix(1,0,0,1,65,1305) translate(33.425 47.8)"/><use xlink:href="#c" transform="matrix(1,0,0,1,65,1305) translate(107.325 47.8)"/><use xlink:href="#S" transform="matrix(1,0,0,1,65,1305) translate(8.900000000000006 69.4)"/><use xlink:href="#m" transform="matrix(1,0,0,1,65,1305) translate(86.85000000000001 69.4)"/><use xlink:href="#n" transform="matrix(1,0,0,1,65,1305) translate(125.75 69.4)"/><use xlink:href="#o" transform="matrix(1,0,0,1,65,1305) translate(147.2 69.4)"/></g><path d="M340 1300h200v120H340z" stroke="#000" stroke-width="2" fill="#fff"/><g><use xlink:href="#T" transform="matrix(1,0,0,1,345,1305) translate(31.39999999999999 47.8)"/><use xlink:href="#U" transform="matrix(1,0,0,1,345,1305) translate(85.65 47.8)"/><use xlink:href="#V" transform="matrix(1,0,0,1,345,1305) translate(7.400000000000006 69.4)"/><use xlink:href="#m" transform="matrix(1,0,0,1,345,1305) translate(88.35000000000001 69.4)"/><use xlink:href="#n" transform="matrix(1,0,0,1,345,1305) translate(127.25 69.4)"/><use xlink:href="#W" transform="matrix(1,0,0,1,345,1305) translate(148.7 69.4)"/></g><path d="M340 1500h200v120H340z" stroke="#000" stroke-width="2" fill="#fff"/><g><use xlink:href="#X" transform="matrix(1,0,0,1,345,1505) translate(18.625 37)"/><use xlink:href="#D" transform="matrix(1,0,0,1,345,1505) translate(141.375 37)"/><use xlink:href="#E" transform="matrix(1,0,0,1,345,1505) translate(13.625 58.6)"/><use xlink:href="#Y" transform="matrix(1,0,0,1,345,1505) translate(86.525 58.6)"/><use xlink:href="#Z" transform="matrix(1,0,0,1,345,1505) translate(7.499999999999986 80.20000000000002)"/><use xlink:href="#d" transform="matrix(1,0,0,1,345,1505) translate(61.74999999999999 80.20000000000002)"/><use xlink:href="#j" transform="matrix(1,0,0,1,345,1505) translate(148.60000000000002 80.20000000000002)"/></g><path d="M160 221v60.76" stroke="#000" stroke-width="2" fill="none"/><path d="M161 221h-2v-1h2z"/><path d="M160 296.76l-4.64-14.26h9.28z" stroke="#000" stroke-width="2"/><path d="M160 421v60.76" stroke="#000" stroke-width="2" fill="none"/><path d="M161 421h-2v-1h2z"/><path d="M160 496.76l-4.64-14.26h9.28z" stroke="#000" stroke-width="2"/><path d="M261 560h59.76" stroke="#000" stroke-width="2" fill="none"/><path d="M261 561h-1v-2h1zM335.76 560l-14.26 4.64v-9.28z"/><path d="M339 560l-18.5 6v-12zm-16.5 3.26l10.03-3.26-10.03-3.26z"/><path d="M440 621v59.76" stroke="#000" stroke-width="2" fill="none"/><path d="M441 621h-2v-1h2zM440 695.76l-4.64-14.26h9.28z"/><path d="M440 699l-6-18.5h12zm-3.26-16.5l3.26 10.03 3.26-10.03z"/><path d="M160 621v259.76" stroke="#000" stroke-width="2" fill="none"/><path d="M161 621h-2v-1h2zM160 895.76l-4.64-14.26h9.28z"/><path d="M160 899l-6-18.5h12zm-3.26-16.5l3.26 10.03 3.26-10.03z"/><path d="M160 1021v59.76" stroke="#000" stroke-width="2" fill="none"/><path d="M161 1021h-2v-1h2zM160 1095.76l-4.64-14.26h9.28z"/><path d="M160 1099l-6-18.5h12zm-3.26-16.5l3.26 10.03 3.26-10.03z"/><path d="M261 1160h59.76" stroke="#000" stroke-width="2" fill="none"/><path d="M261 1161h-1v-2h1zM335.76 1160l-14.26 4.64v-9.28z"/><path d="M339 1160l-18.5 6v-12zm-16.5 3.26l10.03-3.26-10.03-3.26z"/><path d="M440 1221v39H160v20.76" stroke="#000" stroke-width="2" fill="none"/><path d="M441 1221h-2v-1h2zM160 1295.76l-4.64-14.26h9.28z"/><path d="M160 1299l-6-18.5h12zm-3.26-16.5l3.26 10.03 3.26-10.03z"/><path d="M160 1221V1280.76" stroke="#000" stroke-width="2" fill="none"/><path d="M161 1221h-2v-1h2zM160 1295.76l-4.64-14.26h9.28z"/><path d="M160 1299l-6-18.5h12zm-3.26-16.5l3.26 10.03 3.26-10.03z"/><path d="M261 1360h59.76" stroke="#000" stroke-width="2" fill="none"/><path d="M261 1361h-1v-2h1zM335.76 1360l-14.26 4.64v-9.28z"/><path d="M339 1360l-18.5 6v-12zm-16.5 3.26l10.03-3.26-10.03-3.26z"/><path d="M440 1421v59.76" stroke="#000" stroke-width="2" fill="none"/><path d="M441 1421h-2v-1h2zM440 1495.76l-4.64-14.26h9.28z"/><path d="M440 1499l-6-18.5h12zm-3.26-16.5l3.26 10.03 3.26-10.03z"/><path d="M40 40h240v60H40z" stroke="#000" stroke-opacity="0" stroke-width="2" fill="#fff" fill-opacity="0"/><g><use xlink:href="#aa" transform="matrix(1,0,0,1,45,45) translate(58.8148148148148 30.333333333333336)"/></g><path d="M320 40h240v60H320z" stroke="#000" stroke-opacity="0" stroke-width="2" fill="#fff" fill-opacity="0"/><g><use xlink:href="#ab" transform="matrix(1,0,0,1,325,45) translate(46.25925925925925 30.333333333333336)"/></g><defs><path d="M30-248c118-7 216 8 213 122C240-48 200 0 122 0H30v-248zM63-27c89 8 146-16 146-99s-60-101-146-95v194" id="ac"/><path d="M100-194c63 0 86 42 84 106H49c0 40 14 67 53 68 26 1 43-12 49-29l28 8c-11 28-37 45-77 45C44 4 14-33 15-96c1-61 26-98 85-98zm52 81c6-60-76-77-97-28-3 7-6 17-6 28h103" id="ad"/><path d="M108 0H70L1-190h34L89-25l56-165h34" id="ae"/><path d="M24 0v-261h32V0H24" id="af"/><path d="M100-194c62-1 85 37 85 99 1 63-27 99-86 99S16-35 15-95c0-66 28-99 85-99zM99-20c44 1 53-31 53-75 0-43-8-75-51-75s-53 32-53 75 10 74 51 75" id="ag"/><path d="M115-194c55 1 70 41 70 98S169 2 115 4C84 4 66-9 55-30l1 105H24l-1-265h31l2 30c10-21 28-34 59-34zm-8 174c40 0 45-34 45-75s-6-73-45-74c-42 0-51 32-51 76 0 43 10 73 51 73" id="ah"/><g id="a"><use transform="matrix(0.05,0,0,0.05,0,0)" xlink:href="#ac"/><use transform="matrix(0.05,0,0,0.05,12.950000000000001,0)" xlink:href="#ad"/><use transform="matrix(0.05,0,0,0.05,22.950000000000003,0)" xlink:href="#ae"/><use transform="matrix(0.05,0,0,0.05,31.950000000000003,0)" xlink:href="#ad"/><use transform="matrix(0.05,0,0,0.05,41.95,0)" xlink:href="#af"/><use transform="matrix(0.05,0,0,0.05,45.900000000000006,0)" xlink:href="#ag"/><use transform="matrix(0.05,0,0,0.05,55.900000000000006,0)" xlink:href="#ah"/></g><path d="M117-194c89-4 53 116 60 194h-32v-121c0-31-8-49-39-48C34-167 62-67 57 0H25l-1-190h30c1 10-1 24 2 32 11-22 29-35 61-36" id="ai"/><path d="M206 0h-36l-40-164L89 0H53L-1-190h32L70-26l43-164h34l41 164 42-164h31" id="aj"/><g id="b"><use transform="matrix(0.05,0,0,0.05,0,0)" xlink:href="#ai"/><use transform="matrix(0.05,0,0,0.05,10,0)" xlink:href="#ad"/><use transform="matrix(0.05,0,0,0.05,20,0)" xlink:href="#aj"/></g><path d="M205 0l-28-72H64L36 0H1l101-248h38L239 0h-34zm-38-99l-47-123c-12 45-31 82-46 123h93" id="ak"/><path d="M240 0l2-218c-23 76-54 145-80 218h-23L58-218 59 0H30v-248h44l77 211c21-75 51-140 76-211h43V0h-30" id="al"/><path d="M30 0v-248h33v221h125V0H30" id="am"/><g id="c"><use transform="matrix(0.05,0,0,0.05,0,0)" xlink:href="#ac"/><use transform="matrix(0.05,0,0,0.05,12.950000000000001,0)" xlink:href="#ak"/><use transform="matrix(0.05,0,0,0.05,24.950000000000003,0)" xlink:href="#al"/><use transform="matrix(0.05,0,0,0.05,39.900000000000006,0)" xlink:href="#am"/></g><path d="M127-220V0H93v-220H8v-28h204v28h-85" id="an"/><path d="M210-169c-67 3-38 105-44 169h-31v-121c0-29-5-50-35-48C34-165 62-65 56 0H25l-1-190h30c1 10-1 24 2 32 10-44 99-50 107 0 11-21 27-35 58-36 85-2 47 119 55 194h-31v-121c0-29-5-49-35-48" id="ao"/><path d="M141-36C126-15 110 5 73 4 37 3 15-17 15-53c-1-64 63-63 125-63 3-35-9-54-41-54-24 1-41 7-42 31l-33-3c5-37 33-52 76-52 45 0 72 20 72 64v82c-1 20 7 32 28 27v20c-31 9-61-2-59-35zM48-53c0 20 12 33 32 33 41-3 63-29 60-74-43 2-92-5-92 41" id="ap"/><path d="M59-47c-2 24 18 29 38 22v24C64 9 27 4 27-40v-127H5v-23h24l9-43h21v43h35v23H59v120" id="aq"/><path d="M135-143c-3-34-86-38-87 0 15 53 115 12 119 90S17 21 10-45l28-5c4 36 97 45 98 0-10-56-113-15-118-90-4-57 82-63 122-42 12 7 21 19 24 35" id="ar"/><g id="d"><use transform="matrix(0.05,0,0,0.05,0,0)" xlink:href="#an"/><use transform="matrix(0.05,0,0,0.05,8.950000000000001,0)" xlink:href="#ad"/><use transform="matrix(0.05,0,0,0.05,18.950000000000003,0)" xlink:href="#ao"/><use transform="matrix(0.05,0,0,0.05,33.900000000000006,0)" xlink:href="#ah"/><use transform="matrix(0.05,0,0,0.05,43.900000000000006,0)" xlink:href="#af"/><use transform="matrix(0.05,0,0,0.05,47.85000000000001,0)" xlink:href="#ap"/><use transform="matrix(0.05,0,0,0.05,57.85,0)" xlink:href="#aq"/><use transform="matrix(0.05,0,0,0.05,62.85,0)" xlink:href="#ad"/><use transform="matrix(0.05,0,0,0.05,72.85000000000001,0)" xlink:href="#ar"/></g><path d="M87 75C49 33 22-17 22-94c0-76 28-126 65-167h31c-38 41-64 92-64 168S80 34 118 75H87" id="as"/><path d="M137 0h-34L2-248h35l83 218 83-218h36" id="at"/><path d="M101-251c82-7 93 87 43 132L82-64C71-53 59-42 53-27h129V0H18c2-99 128-94 128-182 0-28-16-43-45-43s-46 15-49 41l-32-3c6-41 34-60 81-64" id="au"/><path d="M33-261c38 41 65 92 65 168S71 34 33 75H2C39 34 66-17 66-93S39-220 2-261h31" id="av"/><path d="M68-38c1 34 0 65-14 84H32c9-13 17-26 17-46H33v-38h35" id="aw"/><g id="e"><use transform="matrix(0.05,0,0,0.05,0,0)" xlink:href="#as"/><use transform="matrix(0.05,0,0,0.05,5.95,0)" xlink:href="#at"/><use transform="matrix(0.05,0,0,0.05,17.95,0)" xlink:href="#au"/><use transform="matrix(0.05,0,0,0.05,27.950000000000003,0)" xlink:href="#av"/><use transform="matrix(0.05,0,0,0.05,33.9,0)" xlink:href="#aw"/></g><path d="M24-231v-30h32v30H24zM24 0v-190h32V0H24" id="ax"/><path d="M85-194c31 0 48 13 60 33l-1-100h32l1 261h-30c-2-10 0-23-3-31C134-8 116 4 85 4 32 4 16-35 15-94c0-66 23-100 70-100zm9 24c-40 0-46 34-46 75 0 40 6 74 45 74 42 0 51-32 51-76 0-42-9-74-50-73" id="ay"/><g id="f"><use transform="matrix(0.05,0,0,0.05,0,0)" xlink:href="#ax"/><use transform="matrix(0.05,0,0,0.05,3.95,0)" xlink:href="#ai"/><use transform="matrix(0.05,0,0,0.05,13.949999999999998,0)" xlink:href="#aq"/><use transform="matrix(0.05,0,0,0.05,18.95,0)" xlink:href="#ad"/><use transform="matrix(0.05,0,0,0.05,28.950000000000003,0)" xlink:href="#ai"/><use transform="matrix(0.05,0,0,0.05,38.95,0)" xlink:href="#ay"/><use transform="matrix(0.05,0,0,0.05,48.95,0)" xlink:href="#ad"/><use transform="matrix(0.05,0,0,0.05,58.95,0)" xlink:href="#ay"/></g><g id="g"><use transform="matrix(0.05,0,0,0.05,0,0)" xlink:href="#aq"/><use transform="matrix(0.05,0,0,0.05,5,0)" xlink:href="#ag"/></g><path d="M114-163C36-179 61-72 57 0H25l-1-190h30c1 12-1 29 2 39 6-27 23-49 58-41v29" id="az"/><path d="M96-169c-40 0-48 33-48 73s9 75 48 75c24 0 41-14 43-38l32 2c-6 37-31 61-74 61-59 0-76-41-82-99-10-93 101-131 147-64 4 7 5 14 7 22l-32 3c-4-21-16-35-41-35" id="aA"/><g id="h"><use transform="matrix(0.05,0,0,0.05,0,0)" xlink:href="#az"/><use transform="matrix(0.05,0,0,0.05,5.95,0)" xlink:href="#ad"/><use transform="matrix(0.05,0,0,0.05,15.949999999999998,0)" xlink:href="#ah"/><use transform="matrix(0.05,0,0,0.05,25.950000000000003,0)" xlink:href="#af"/><use transform="matrix(0.05,0,0,0.05,29.899999999999995,0)" xlink:href="#ap"/><use transform="matrix(0.05,0,0,0.05,39.9,0)" xlink:href="#aA"/><use transform="matrix(0.05,0,0,0.05,48.9,0)" xlink:href="#ad"/></g><path d="M141 0L90-78 38 0H4l68-98-65-92h35l48 74 47-74h35l-64 92 68 98h-35" id="aB"/><path d="M177-190C167-65 218 103 67 71c-23-6-38-20-44-43l32-5c15 47 100 32 89-28v-30C133-14 115 1 83 1 29 1 15-40 15-95c0-56 16-97 71-98 29-1 48 16 59 35 1-10 0-23 2-32h30zM94-22c36 0 50-32 50-73 0-42-14-75-50-75-39 0-46 34-46 75s6 73 46 73" id="aC"/><g id="i"><use transform="matrix(0.05,0,0,0.05,0,0)" xlink:href="#ad"/><use transform="matrix(0.05,0,0,0.05,10,0)" xlink:href="#aB"/><use transform="matrix(0.05,0,0,0.05,19,0)" xlink:href="#ax"/><use transform="matrix(0.05,0,0,0.05,22.95,0)" xlink:href="#ar"/><use transform="matrix(0.05,0,0,0.05,31.950000000000003,0)" xlink:href="#aq"/><use transform="matrix(0.05,0,0,0.05,36.95,0)" xlink:href="#ax"/><use transform="matrix(0.05,0,0,0.05,40.900000000000006,0)" xlink:href="#ai"/><use transform="matrix(0.05,0,0,0.05,50.900000000000006,0)" xlink:href="#aC"/></g><path d="M27 0v-27h64v-190l-56 39v-29l58-41h29v221h61V0H27" id="aD"/><g id="j"><use transform="matrix(0.05,0,0,0.05,0,0)" xlink:href="#as"/><use transform="matrix(0.05,0,0,0.05,5.95,0)" xlink:href="#at"/><use transform="matrix(0.05,0,0,0.05,17.95,0)" xlink:href="#aD"/><use transform="matrix(0.05,0,0,0.05,27.950000000000003,0)" xlink:href="#av"/></g><path d="M232-93c-1 65-40 97-104 97C67 4 28-28 28-90v-158h33c8 89-33 224 67 224 102 0 64-133 71-224h33v155" id="aE"/><g id="k"><use transform="matrix(0.05,0,0,0.05,0,0)" xlink:href="#aE"/><use transform="matrix(0.05,0,0,0.05,12.950000000000001,0)" xlink:href="#ah"/><use transform="matrix(0.05,0,0,0.05,22.950000000000003,0)" xlink:href="#aC"/><use transform="matrix(0.05,0,0,0.05,32.95,0)" xlink:href="#az"/><use transform="matrix(0.05,0,0,0.05,38.900000000000006,0)" xlink:href="#ap"/><use transform="matrix(0.05,0,0,0.05,48.900000000000006,0)" xlink:href="#ay"/><use transform="matrix(0.05,0,0,0.05,58.900000000000006,0)" xlink:href="#ad"/></g><g id="l"><use transform="matrix(0.05,0,0,0.05,0,0)" xlink:href="#aA"/><use transform="matrix(0.05,0,0,0.05,9,0)" xlink:href="#ag"/><use transform="matrix(0.05,0,0,0.05,19,0)" xlink:href="#ai"/><use transform="matrix(0.05,0,0,0.05,29,0)" xlink:href="#ae"/><use transform="matrix(0.05,0,0,0.05,38,0)" xlink:href="#ad"/><use transform="matrix(0.05,0,0,0.05,48,0)" xlink:href="#az"/><use transform="matrix(0.05,0,0,0.05,53.95,0)" xlink:href="#aq"/></g><g id="m"><use transform="matrix(0.05,0,0,0.05,0,0)" xlink:href="#as"/><use transform="matrix(0.05,0,0,0.05,5.95,0)" xlink:href="#at"/><use transform="matrix(0.05,0,0,0.05,17.95,0)" xlink:href="#aD"/><use transform="matrix(0.05,0,0,0.05,27.950000000000003,0)" xlink:href="#av"/></g><path d="M16-82v-28h88v28H16" id="aF"/><path d="M18-27v-27l151-64-151-65v-27l175 74v36" id="aG"/><g id="n"><use transform="matrix(0.05,0,0,0.05,0,0)" xlink:href="#aF"/><use transform="matrix(0.05,0,0,0.05,5.95,0)" xlink:href="#aG"/></g><g id="o"><use transform="matrix(0.05,0,0,0.05,0,0)" xlink:href="#as"/><use transform="matrix(0.05,0,0,0.05,5.95,0)" xlink:href="#at"/><use transform="matrix(0.05,0,0,0.05,17.95,0)" xlink:href="#au"/><use transform="matrix(0.05,0,0,0.05,27.950000000000003,0)" xlink:href="#av"/></g><path d="M115-194c53 0 69 39 70 98 0 66-23 100-70 100C84 3 66-7 56-30L54 0H23l1-261h32v101c10-23 28-34 59-34zm-8 174c40 0 45-34 45-75 0-40-5-75-45-74-42 0-51 32-51 76 0 43 10 73 51 73" id="aH"/><path d="M84 4C-5 8 30-112 23-190h32v120c0 31 7 50 39 49 72-2 45-101 50-169h31l1 190h-30c-1-10 1-25-2-33-11 22-28 36-60 37" id="aI"/><g id="p"><use transform="matrix(0.05,0,0,0.05,0,0)" xlink:href="#ac"/><use transform="matrix(0.05,0,0,0.05,12.950000000000001,0)" xlink:href="#ax"/><use transform="matrix(0.05,0,0,0.05,16.900000000000002,0)" xlink:href="#ar"/><use transform="matrix(0.05,0,0,0.05,25.900000000000002,0)" xlink:href="#aq"/><use transform="matrix(0.05,0,0,0.05,30.900000000000002,0)" xlink:href="#az"/><use transform="matrix(0.05,0,0,0.05,36.85,0)" xlink:href="#ax"/><use transform="matrix(0.05,0,0,0.05,40.800000000000004,0)" xlink:href="#aH"/><use transform="matrix(0.05,0,0,0.05,50.800000000000004,0)" xlink:href="#aI"/><use transform="matrix(0.05,0,0,0.05,60.800000000000004,0)" xlink:href="#aq"/><use transform="matrix(0.05,0,0,0.05,65.80000000000001,0)" xlink:href="#ad"/></g><g id="q"><use transform="matrix(0.05,0,0,0.05,0,0)" xlink:href="#as"/><use transform="matrix(0.05,0,0,0.05,5.95,0)" xlink:href="#at"/><use transform="matrix(0.05,0,0,0.05,17.95,0)" xlink:href="#au"/></g><g id="r"><use transform="matrix(0.05,0,0,0.05,0,0)" xlink:href="#ap"/><use transform="matrix(0.05,0,0,0.05,10,0)" xlink:href="#ai"/><use transform="matrix(0.05,0,0,0.05,20,0)" xlink:href="#ay"/></g><g id="s"><use transform="matrix(0.05,0,0,0.05,0,0)" xlink:href="#aE"/><use transform="matrix(0.05,0,0,0.05,12.950000000000001,0)" xlink:href="#ah"/><use transform="matrix(0.05,0,0,0.05,22.950000000000003,0)" xlink:href="#aC"/><use transform="matrix(0.05,0,0,0.05,32.95,0)" xlink:href="#az"/><use transform="matrix(0.05,0,0,0.05,38.900000000000006,0)" xlink:href="#ap"/><use transform="matrix(0.05,0,0,0.05,48.900000000000006,0)" xlink:href="#ay"/><use transform="matrix(0.05,0,0,0.05,58.900000000000006,0)" xlink:href="#ad"/><use transform="matrix(0.05,0,0,0.05,68.9,0)" xlink:href="#av"/></g><path d="M101-234c-31-9-42 10-38 44h38v23H63V0H32v-167H5v-23h27c-7-52 17-82 69-68v24" id="aJ"/><g id="t"><use transform="matrix(0.05,0,0,0.05,0,0)" xlink:href="#ap"/><use transform="matrix(0.05,0,0,0.05,10,0)" xlink:href="#aJ"/><use transform="matrix(0.05,0,0,0.05,14.65,0)" xlink:href="#aJ"/><use transform="matrix(0.05,0,0,0.05,19.65,0)" xlink:href="#ad"/><use transform="matrix(0.05,0,0,0.05,29.649999999999995,0)" xlink:href="#aA"/><use transform="matrix(0.05,0,0,0.05,38.65,0)" xlink:href="#aq"/><use transform="matrix(0.05,0,0,0.05,43.65,0)" xlink:href="#ad"/><use transform="matrix(0.05,0,0,0.05,53.650000000000006,0)" xlink:href="#ay"/></g><path d="M30-248c87 1 191-15 191 75 0 78-77 80-158 76V0H30v-248zm33 125c57 0 124 11 124-50 0-59-68-47-124-48v98" id="aK"/><g id="u"><use transform="matrix(0.05,0,0,0.05,0,0)" xlink:href="#aK"/><use transform="matrix(0.05,0,0,0.05,12,0)" xlink:href="#ap"/><use transform="matrix(0.05,0,0,0.05,22,0)" xlink:href="#az"/><use transform="matrix(0.05,0,0,0.05,27.950000000000003,0)" xlink:href="#aq"/><use transform="matrix(0.05,0,0,0.05,32.95,0)" xlink:href="#ax"/><use transform="matrix(0.05,0,0,0.05,36.900000000000006,0)" xlink:href="#aA"/><use transform="matrix(0.05,0,0,0.05,45.900000000000006,0)" xlink:href="#ax"/><use transform="matrix(0.05,0,0,0.05,49.85000000000001,0)" xlink:href="#ah"/><use transform="matrix(0.05,0,0,0.05,59.85,0)" xlink:href="#ap"/><use transform="matrix(0.05,0,0,0.05,69.85000000000001,0)" xlink:href="#ai"/><use transform="matrix(0.05,0,0,0.05,79.85000000000001,0)" xlink:href="#aq"/><use transform="matrix(0.05,0,0,0.05,84.85000000000001,0)" xlink:href="#ar"/></g><g id="v"><use transform="matrix(0.05,0,0,0.05,0,0)" xlink:href="#aE"/><use transform="matrix(0.05,0,0,0.05,12.950000000000001,0)" xlink:href="#ah"/><use transform="matrix(0.05,0,0,0.05,22.950000000000003,0)" xlink:href="#aC"/><use transform="matrix(0.05,0,0,0.05,32.95,0)" xlink:href="#az"/><use transform="matrix(0.05,0,0,0.05,38.900000000000006,0)" xlink:href="#ap"/><use transform="matrix(0.05,0,0,0.05,48.900000000000006,0)" xlink:href="#ay"/><use transform="matrix(0.05,0,0,0.05,58.900000000000006,0)" xlink:href="#ad"/></g><path d="M179-190L93 31C79 59 56 82 12 73V49c39 6 53-20 64-50L1-190h34L92-34l54-156h33" id="aL"/><g id="w"><use transform="matrix(0.05,0,0,0.05,0,0)" xlink:href="#ap"/><use transform="matrix(0.05,0,0,0.05,10,0)" xlink:href="#ai"/><use transform="matrix(0.05,0,0,0.05,20,0)" xlink:href="#aL"/></g><g id="x"><use transform="matrix(0.05,0,0,0.05,0,0)" xlink:href="#ap"/><use transform="matrix(0.05,0,0,0.05,10,0)" xlink:href="#ah"/><use transform="matrix(0.05,0,0,0.05,20,0)" xlink:href="#ah"/><use transform="matrix(0.05,0,0,0.05,30,0)" xlink:href="#ar"/></g><g id="y"><use transform="matrix(0.05,0,0,0.05,0,0)" xlink:href="#aq"/><use transform="matrix(0.05,0,0,0.05,5,0)" xlink:href="#ag"/></g><g id="z"><use transform="matrix(0.05,0,0,0.05,0,0)" xlink:href="#az"/><use transform="matrix(0.05,0,0,0.05,5.95,0)" xlink:href="#aI"/><use transform="matrix(0.05,0,0,0.05,15.949999999999998,0)" xlink:href="#ai"/></g><g id="A"><use transform="matrix(0.05,0,0,0.05,0,0)" xlink:href="#ap"/><use transform="matrix(0.05,0,0,0.05,10,0)" xlink:href="#aC"/><use transform="matrix(0.05,0,0,0.05,20,0)" xlink:href="#ap"/><use transform="matrix(0.05,0,0,0.05,30,0)" xlink:href="#ax"/><use transform="matrix(0.05,0,0,0.05,33.95,0)" xlink:href="#ai"/><use transform="matrix(0.05,0,0,0.05,43.95,0)" xlink:href="#ar"/><use transform="matrix(0.05,0,0,0.05,52.95,0)" xlink:href="#aq"/></g><g id="B"><use transform="matrix(0.05,0,0,0.05,0,0)" xlink:href="#aE"/><use transform="matrix(0.05,0,0,0.05,12.950000000000001,0)" xlink:href="#ah"/><use transform="matrix(0.05,0,0,0.05,22.950000000000003,0)" xlink:href="#aC"/><use transform="matrix(0.05,0,0,0.05,32.95,0)" xlink:href="#az"/><use transform="matrix(0.05,0,0,0.05,38.900000000000006,0)" xlink:href="#ap"/><use transform="matrix(0.05,0,0,0.05,48.900000000000006,0)" xlink:href="#ay"/><use transform="matrix(0.05,0,0,0.05,58.900000000000006,0)" xlink:href="#ad"/><use transform="matrix(0.05,0,0,0.05,68.9,0)" xlink:href="#av"/></g><g id="C"><use transform="matrix(0.05,0,0,0.05,0,0)" xlink:href="#ac"/><use transform="matrix(0.05,0,0,0.05,12.950000000000001,0)" xlink:href="#ad"/><use transform="matrix(0.05,0,0,0.05,22.950000000000003,0)" xlink:href="#ah"/><use transform="matrix(0.05,0,0,0.05,32.95,0)" xlink:href="#af"/><use transform="matrix(0.05,0,0,0.05,36.900000000000006,0)" xlink:href="#ag"/><use transform="matrix(0.05,0,0,0.05,46.900000000000006,0)" xlink:href="#aL"/></g><g id="D"><use transform="matrix(0.05,0,0,0.05,0,0)" xlink:href="#ap"/><use transform="matrix(0.05,0,0,0.05,10,0)" xlink:href="#ah"/><use transform="matrix(0.05,0,0,0.05,20,0)" xlink:href="#ah"/></g><g id="E"><use transform="matrix(0.05,0,0,0.05,0,0)" xlink:href="#ar"/><use transform="matrix(0.05,0,0,0.05,9,0)" xlink:href="#ag"/><use transform="matrix(0.05,0,0,0.05,19,0)" xlink:href="#aJ"/><use transform="matrix(0.05,0,0,0.05,24,0)" xlink:href="#aq"/><use transform="matrix(0.05,0,0,0.05,29,0)" xlink:href="#aj"/><use transform="matrix(0.05,0,0,0.05,41.95,0)" xlink:href="#ap"/><use transform="matrix(0.05,0,0,0.05,51.95,0)" xlink:href="#az"/><use transform="matrix(0.05,0,0,0.05,57.900000000000006,0)" xlink:href="#ad"/></g><g id="F"><use transform="matrix(0.05,0,0,0.05,0,0)" xlink:href="#ap"/><use transform="matrix(0.05,0,0,0.05,10,0)" xlink:href="#af"/><use transform="matrix(0.05,0,0,0.05,13.949999999999998,0)" xlink:href="#ag"/><use transform="matrix(0.05,0,0,0.05,23.95,0)" xlink:href="#ai"/><use transform="matrix(0.05,0,0,0.05,33.95,0)" xlink:href="#aC"/><use transform="matrix(0.05,0,0,0.05,43.95,0)" xlink:href="#ar"/><use transform="matrix(0.05,0,0,0.05,52.95,0)" xlink:href="#ax"/><use transform="matrix(0.05,0,0,0.05,56.900000000000006,0)" xlink:href="#ay"/><use transform="matrix(0.05,0,0,0.05,66.9,0)" xlink:href="#ad"/></g><g id="G"><use transform="matrix(0.05,0,0,0.05,0,0)" xlink:href="#ar"/><use transform="matrix(0.05,0,0,0.05,9,0)" xlink:href="#ag"/></g><g id="H"><use transform="matrix(0.05,0,0,0.05,0,0)" xlink:href="#aA"/><use transform="matrix(0.05,0,0,0.05,9,0)" xlink:href="#ap"/><use transform="matrix(0.05,0,0,0.05,19,0)" xlink:href="#ai"/></g><path d="M212-179c-10-28-35-45-73-45-59 0-87 40-87 99 0 60 29 101 89 101 43 0 62-24 78-52l27 14C228-24 195 4 139 4 59 4 22-46 18-125c-6-104 99-153 187-111 19 9 31 26 39 46" id="aM"/><g id="I"><use transform="matrix(0.05,0,0,0.05,0,0)" xlink:href="#aM"/><use transform="matrix(0.05,0,0,0.05,12.950000000000001,0)" xlink:href="#az"/><use transform="matrix(0.05,0,0,0.05,18.900000000000002,0)" xlink:href="#ad"/><use transform="matrix(0.05,0,0,0.05,28.900000000000002,0)" xlink:href="#ap"/><use transform="matrix(0.05,0,0,0.05,38.900000000000006,0)" xlink:href="#aq"/><use transform="matrix(0.05,0,0,0.05,43.900000000000006,0)" xlink:href="#ad"/></g><g id="J"><use transform="matrix(0.05,0,0,0.05,0,0)" xlink:href="#al"/><use transform="matrix(0.05,0,0,0.05,14.950000000000001,0)" xlink:href="#ap"/><use transform="matrix(0.05,0,0,0.05,24.950000000000003,0)" xlink:href="#ar"/><use transform="matrix(0.05,0,0,0.05,33.95,0)" xlink:href="#aq"/><use transform="matrix(0.05,0,0,0.05,38.95,0)" xlink:href="#ad"/><use transform="matrix(0.05,0,0,0.05,48.95,0)" xlink:href="#az"/></g><g id="K"><use transform="matrix(0.05,0,0,0.05,0,0)" xlink:href="#aA"/><use transform="matrix(0.05,0,0,0.05,9,0)" xlink:href="#ag"/><use transform="matrix(0.05,0,0,0.05,19,0)" xlink:href="#ai"/><use transform="matrix(0.05,0,0,0.05,29,0)" xlink:href="#aq"/><use transform="matrix(0.05,0,0,0.05,34,0)" xlink:href="#az"/><use transform="matrix(0.05,0,0,0.05,39.95,0)" xlink:href="#ap"/><use transform="matrix(0.05,0,0,0.05,49.95,0)" xlink:href="#aA"/><use transform="matrix(0.05,0,0,0.05,58.95,0)" xlink:href="#aq"/></g><path d="M233-177c-1 41-23 64-60 70L243 0h-38l-65-103H63V0H30v-248c88 3 205-21 203 71zM63-129c60-2 137 13 137-47 0-61-80-42-137-45v92" id="aN"/><path d="M145-31C134-9 116 4 85 4 32 4 16-35 15-94c0-59 17-99 70-100 32-1 48 14 60 33 0-11-1-24 2-32h30l-1 268h-32zM93-21c41 0 51-33 51-76s-8-73-50-73c-40 0-46 35-46 75s5 74 45 74" id="aO"/><g id="L"><use transform="matrix(0.05,0,0,0.05,0,0)" xlink:href="#aN"/><use transform="matrix(0.05,0,0,0.05,12.950000000000001,0)" xlink:href="#ad"/><use transform="matrix(0.05,0,0,0.05,22.950000000000003,0)" xlink:href="#aO"/><use transform="matrix(0.05,0,0,0.05,32.95,0)" xlink:href="#aI"/><use transform="matrix(0.05,0,0,0.05,42.95,0)" xlink:href="#ad"/><use transform="matrix(0.05,0,0,0.05,52.95,0)" xlink:href="#ar"/><use transform="matrix(0.05,0,0,0.05,61.95,0)" xlink:href="#aq"/></g><g id="M"><use transform="matrix(0.05,0,0,0.05,0,0)" xlink:href="#aK"/><use transform="matrix(0.05,0,0,0.05,12,0)" xlink:href="#ap"/><use transform="matrix(0.05,0,0,0.05,22,0)" xlink:href="#az"/><use transform="matrix(0.05,0,0,0.05,27.950000000000003,0)" xlink:href="#aq"/><use transform="matrix(0.05,0,0,0.05,32.95,0)" xlink:href="#ax"/><use transform="matrix(0.05,0,0,0.05,36.900000000000006,0)" xlink:href="#aA"/><use transform="matrix(0.05,0,0,0.05,45.900000000000006,0)" xlink:href="#ax"/><use transform="matrix(0.05,0,0,0.05,49.85000000000001,0)" xlink:href="#ah"/><use transform="matrix(0.05,0,0,0.05,59.85,0)" xlink:href="#ap"/><use transform="matrix(0.05,0,0,0.05,69.85000000000001,0)" xlink:href="#ai"/><use transform="matrix(0.05,0,0,0.05,79.85000000000001,0)" xlink:href="#aq"/></g><g id="N"><use transform="matrix(0.05,0,0,0.05,0,0)" xlink:href="#aE"/><use transform="matrix(0.05,0,0,0.05,12.950000000000001,0)" xlink:href="#ah"/><use transform="matrix(0.05,0,0,0.05,22.950000000000003,0)" xlink:href="#aC"/><use transform="matrix(0.05,0,0,0.05,32.95,0)" xlink:href="#az"/><use transform="matrix(0.05,0,0,0.05,38.900000000000006,0)" xlink:href="#ap"/><use transform="matrix(0.05,0,0,0.05,48.900000000000006,0)" xlink:href="#ay"/><use transform="matrix(0.05,0,0,0.05,58.900000000000006,0)" xlink:href="#ad"/></g><g id="O"><use transform="matrix(0.05,0,0,0.05,0,0)" xlink:href="#ag"/><use transform="matrix(0.05,0,0,0.05,10,0)" xlink:href="#aH"/><use transform="matrix(0.05,0,0,0.05,20,0)" xlink:href="#aq"/><use transform="matrix(0.05,0,0,0.05,25,0)" xlink:href="#ap"/><use transform="matrix(0.05,0,0,0.05,35,0)" xlink:href="#ax"/><use transform="matrix(0.05,0,0,0.05,38.95,0)" xlink:href="#ai"/></g><g id="P"><use transform="matrix(0.05,0,0,0.05,0,0)" xlink:href="#aA"/><use transform="matrix(0.05,0,0,0.05,9,0)" xlink:href="#ag"/><use transform="matrix(0.05,0,0,0.05,19,0)" xlink:href="#ai"/><use transform="matrix(0.05,0,0,0.05,29,0)" xlink:href="#ar"/><use transform="matrix(0.05,0,0,0.05,38,0)" xlink:href="#ad"/><use transform="matrix(0.05,0,0,0.05,48,0)" xlink:href="#ai"/><use transform="matrix(0.05,0,0,0.05,58,0)" xlink:href="#aq"/></g><g id="Q"><use transform="matrix(0.05,0,0,0.05,0,0)" xlink:href="#ak"/><use transform="matrix(0.05,0,0,0.05,12,0)" xlink:href="#aA"/><use transform="matrix(0.05,0,0,0.05,21,0)" xlink:href="#aA"/><use transform="matrix(0.05,0,0,0.05,30,0)" xlink:href="#ad"/><use transform="matrix(0.05,0,0,0.05,40,0)" xlink:href="#ah"/><use transform="matrix(0.05,0,0,0.05,50,0)" xlink:href="#aq"/></g><g id="R"><use transform="matrix(0.05,0,0,0.05,0,0)" xlink:href="#aE"/><use transform="matrix(0.05,0,0,0.05,12.950000000000001,0)" xlink:href="#ah"/><use transform="matrix(0.05,0,0,0.05,22.950000000000003,0)" xlink:href="#aC"/><use transform="matrix(0.05,0,0,0.05,32.95,0)" xlink:href="#az"/><use transform="matrix(0.05,0,0,0.05,38.900000000000006,0)" xlink:href="#ap"/><use transform="matrix(0.05,0,0,0.05,48.900000000000006,0)" xlink:href="#ay"/><use transform="matrix(0.05,0,0,0.05,58.900000000000006,0)" xlink:href="#ad"/></g><g id="S"><use transform="matrix(0.05,0,0,0.05,0,0)" xlink:href="#aA"/><use transform="matrix(0.05,0,0,0.05,9,0)" xlink:href="#ag"/><use transform="matrix(0.05,0,0,0.05,19,0)" xlink:href="#ai"/><use transform="matrix(0.05,0,0,0.05,29,0)" xlink:href="#aq"/><use transform="matrix(0.05,0,0,0.05,34,0)" xlink:href="#az"/><use transform="matrix(0.05,0,0,0.05,39.95,0)" xlink:href="#ap"/><use transform="matrix(0.05,0,0,0.05,49.95,0)" xlink:href="#aA"/><use transform="matrix(0.05,0,0,0.05,58.95,0)" xlink:href="#aq"/><use transform="matrix(0.05,0,0,0.05,63.95,0)" xlink:href="#ar"/></g><g id="T"><use transform="matrix(0.05,0,0,0.05,0,0)" xlink:href="#ac"/><use transform="matrix(0.05,0,0,0.05,12.950000000000001,0)" xlink:href="#ak"/><use transform="matrix(0.05,0,0,0.05,24.950000000000003,0)" xlink:href="#al"/><use transform="matrix(0.05,0,0,0.05,39.900000000000006,0)" xlink:href="#am"/></g><g id="U"><use transform="matrix(0.05,0,0,0.05,0,0)" xlink:href="#aA"/><use transform="matrix(0.05,0,0,0.05,9,0)" xlink:href="#ag"/><use transform="matrix(0.05,0,0,0.05,19,0)" xlink:href="#ai"/><use transform="matrix(0.05,0,0,0.05,29,0)" xlink:href="#aq"/><use transform="matrix(0.05,0,0,0.05,34,0)" xlink:href="#az"/><use transform="matrix(0.05,0,0,0.05,39.95,0)" xlink:href="#ap"/><use transform="matrix(0.05,0,0,0.05,49.95,0)" xlink:href="#aA"/><use transform="matrix(0.05,0,0,0.05,58.95,0)" xlink:href="#aq"/><use transform="matrix(0.05,0,0,0.05,63.95,0)" xlink:href="#ar"/></g><g id="V"><use transform="matrix(0.05,0,0,0.05,0,0)" xlink:href="#aI"/><use transform="matrix(0.05,0,0,0.05,10,0)" xlink:href="#ah"/><use transform="matrix(0.05,0,0,0.05,20,0)" xlink:href="#aC"/><use transform="matrix(0.05,0,0,0.05,30,0)" xlink:href="#az"/><use transform="matrix(0.05,0,0,0.05,35.95,0)" xlink:href="#ap"/><use transform="matrix(0.05,0,0,0.05,45.95,0)" xlink:href="#ay"/><use transform="matrix(0.05,0,0,0.05,55.95,0)" xlink:href="#ad"/><use transform="matrix(0.05,0,0,0.05,65.95,0)" xlink:href="#ay"/></g><g id="W"><use transform="matrix(0.05,0,0,0.05,0,0)" xlink:href="#as"/><use transform="matrix(0.05,0,0,0.05,5.95,0)" xlink:href="#at"/><use transform="matrix(0.05,0,0,0.05,17.95,0)" xlink:href="#au"/><use transform="matrix(0.05,0,0,0.05,27.950000000000003,0)" xlink:href="#av"/></g><g id="X"><use transform="matrix(0.05,0,0,0.05,0,0)" xlink:href="#ac"/><use transform="matrix(0.05,0,0,0.05,12.950000000000001,0)" xlink:href="#ad"/><use transform="matrix(0.05,0,0,0.05,22.950000000000003,0)" xlink:href="#aA"/><use transform="matrix(0.05,0,0,0.05,31.950000000000003,0)" xlink:href="#ag"/><use transform="matrix(0.05,0,0,0.05,41.95,0)" xlink:href="#ao"/><use transform="matrix(0.05,0,0,0.05,56.900000000000006,0)" xlink:href="#ao"/><use transform="matrix(0.05,0,0,0.05,71.85000000000001,0)" xlink:href="#ax"/><use transform="matrix(0.05,0,0,0.05,75.80000000000001,0)" xlink:href="#ar"/><use transform="matrix(0.05,0,0,0.05,84.80000000000001,0)" xlink:href="#ar"/><use transform="matrix(0.05,0,0,0.05,93.80000000000001,0)" xlink:href="#ax"/><use transform="matrix(0.05,0,0,0.05,97.75000000000001,0)" xlink:href="#ag"/><use transform="matrix(0.05,0,0,0.05,107.75,0)" xlink:href="#ai"/></g><g id="Y"><use transform="matrix(0.05,0,0,0.05,0,0)" xlink:href="#az"/><use transform="matrix(0.05,0,0,0.05,5.95,0)" xlink:href="#ad"/><use transform="matrix(0.05,0,0,0.05,15.949999999999998,0)" xlink:href="#aJ"/><use transform="matrix(0.05,0,0,0.05,20.95,0)" xlink:href="#ad"/><use transform="matrix(0.05,0,0,0.05,30.950000000000003,0)" xlink:href="#az"/><use transform="matrix(0.05,0,0,0.05,36.9,0)" xlink:href="#ad"/><use transform="matrix(0.05,0,0,0.05,46.9,0)" xlink:href="#ai"/><use transform="matrix(0.05,0,0,0.05,56.900000000000006,0)" xlink:href="#aA"/><use transform="matrix(0.05,0,0,0.05,65.9,0)" xlink:href="#ax"/><use transform="matrix(0.05,0,0,0.05,69.85000000000001,0)" xlink:href="#ai"/><use transform="matrix(0.05,0,0,0.05,79.85000000000001,0)" xlink:href="#aC"/></g><g id="Z"><use transform="matrix(0.05,0,0,0.05,0,0)" xlink:href="#ac"/><use transform="matrix(0.05,0,0,0.05,12.950000000000001,0)" xlink:href="#ak"/><use transform="matrix(0.05,0,0,0.05,24.950000000000003,0)" xlink:href="#al"/><use transform="matrix(0.05,0,0,0.05,39.900000000000006,0)" xlink:href="#am"/></g><path d="M140-251c80 0 125 45 125 126S219 4 139 4C58 4 15-44 15-125s44-126 125-126zm-1 214c52 0 73-35 73-88 0-50-21-86-72-86-52 0-73 35-73 86s22 88 72 88" id="aP"/><path d="M135-194c53 0 70 44 70 98 0 56-19 98-73 100-31 1-45-17-59-34 3 33 2 69 2 105H25l-1-265h48c2 10 0 23 3 31 11-24 29-35 60-35zM114-30c33 0 39-31 40-66 0-38-9-64-40-64-56 0-55 130 0 130" id="aQ"/><path d="M185-48c-13 30-37 53-82 52C43 2 14-33 14-96s30-98 90-98c62 0 83 45 84 108H66c0 31 8 55 39 56 18 0 30-7 34-22zm-45-69c5-46-57-63-70-21-2 6-4 13-4 21h74" id="aR"/><path d="M135-150c-39-12-60 13-60 57V0H25l-1-190h47c2 13-1 29 3 40 6-28 27-53 61-41v41" id="aS"/><path d="M133-34C117-15 103 5 69 4 32 3 11-16 11-54c-1-60 55-63 116-61 1-26-3-47-28-47-18 1-26 9-28 27l-52-2c7-38 36-58 82-57s74 22 75 68l1 82c-1 14 12 18 25 15v27c-30 8-71 5-69-32zm-48 3c29 0 43-24 42-57-32 0-66-3-65 30 0 17 8 27 23 27" id="aT"/><path d="M115-3C79 11 28 4 28-45v-112H4v-33h27l15-45h31v45h36v33H77v99c-1 23 16 31 38 25v30" id="aU"/><path d="M110-194c64 0 96 36 96 99 0 64-35 99-97 99-61 0-95-36-95-99 0-62 34-99 96-99zm-1 164c35 0 45-28 45-65 0-40-10-65-43-65-34 0-45 26-45 65 0 36 10 65 43 65" id="aV"/><g id="aa"><use transform="matrix(0.07407407407407408,0,0,0.07407407407407408,0,0)" xlink:href="#aP"/><use transform="matrix(0.07407407407407408,0,0,0.07407407407407408,20.740740740740744,0)" xlink:href="#aQ"/><use transform="matrix(0.07407407407407408,0,0,0.07407407407407408,36.96296296296297,0)" xlink:href="#aR"/><use transform="matrix(0.07407407407407408,0,0,0.07407407407407408,51.777777777777786,0)" xlink:href="#aS"/><use transform="matrix(0.07407407407407408,0,0,0.07407407407407408,62.14814814814816,0)" xlink:href="#aT"/><use transform="matrix(0.07407407407407408,0,0,0.07407407407407408,76.96296296296298,0)" xlink:href="#aU"/><use transform="matrix(0.07407407407407408,0,0,0.07407407407407408,85.7777777777778,0)" xlink:href="#aV"/><use transform="matrix(0.07407407407407408,0,0,0.07407407407407408,102.00000000000003,0)" xlink:href="#aS"/></g><path d="M24-248c93 1 206-16 204 79-1 75-69 88-152 82V0H24v-248zm52 121c47 0 100 7 100-41 0-47-54-39-100-39v80" id="aW"/><path d="M25-224v-37h50v37H25zM25 0v-190h50V0H25" id="aX"/><path d="M190-63c-7 42-38 67-86 67-59 0-84-38-90-98-12-110 154-137 174-36l-49 2c-2-19-15-32-35-32-30 0-35 28-38 64-6 74 65 87 74 30" id="aY"/><path d="M135-194c87-1 58 113 63 194h-50c-7-57 23-157-34-157-59 0-34 97-39 157H25l-1-190h47c2 12-1 28 3 38 12-26 28-41 61-42" id="aZ"/><g id="ab"><use transform="matrix(0.07407407407407408,0,0,0.07407407407407408,0,0)" xlink:href="#aW"/><use transform="matrix(0.07407407407407408,0,0,0.07407407407407408,17.77777777777778,0)" xlink:href="#aT"/><use transform="matrix(0.07407407407407408,0,0,0.07407407407407408,32.592592592592595,0)" xlink:href="#aS"/><use transform="matrix(0.07407407407407408,0,0,0.07407407407407408,42.96296296296297,0)" xlink:href="#aU"/><use transform="matrix(0.07407407407407408,0,0,0.07407407407407408,51.777777777777786,0)" xlink:href="#aX"/><use transform="matrix(0.07407407407407408,0,0,0.07407407407407408,59.18518518518519,0)" xlink:href="#aY"/><use transform="matrix(0.07407407407407408,0,0,0.07407407407407408,74,0)" xlink:href="#aX"/><use transform="matrix(0.07407407407407408,0,0,0.07407407407407408,81.4074074074074,0)" xlink:href="#aQ"/><use transform="matrix(0.07407407407407408,0,0,0.07407407407407408,97.62962962962962,0)" xlink:href="#aT"/><use transform="matrix(0.07407407407407408,0,0,0.07407407407407408,112.44444444444446,0)" xlink:href="#aZ"/><use transform="matrix(0.07407407407407408,0,0,0.07407407407407408,128.66666666666669,0)" xlink:href="#aU"/></g></defs></g></svg>