<svg xmlns="http://www.w3.org/2000/svg" xmlns:xlink="http://www.w3.org/1999/xlink" xmlns:lucid="lucid" width="551.89" height="247.64"><g transform="translate(0 0)" lucid:page-tab-id="0_0"><path d="M0 0h551.9v247.64H0z" fill="#fff"/><path d="M135.77 10.2c17.34 0 31.4 17.14 31.4 38.3 0 21.14-14.06 38.3-31.4 38.3h-94.2c-17.32 0-31.38-17.16-31.38-38.3 0-21.16 14.05-38.3 31.38-38.3z" stroke="#000" stroke-width="2" fill="#fff"/><use xlink:href="#a" transform="matrix(1,0,0,1,15.188679245283012,15.188679245283033) translate(19.074999999999996 37.1)"/><use xlink:href="#b" transform="matrix(1,0,0,1,15.188679245283012,15.188679245283033) translate(46.074999999999996 37.1)"/><path d="M508.6 10.2c17.34 0 31.4 17.14 31.4 38.3 0 21.14-14.06 38.3-31.4 38.3h-94.18c-17.34 0-31.4-17.16-31.4-38.3 0-21.16 14.06-38.3 31.4-38.3z" stroke="#000" stroke-width="2" fill="#fff"/><use xlink:href="#c" transform="matrix(1,0,0,1,388.01886792452837,15.188679245283033) translate(19.074999999999996 37.1)"/><use xlink:href="#b" transform="matrix(1,0,0,1,388.01886792452837,15.188679245283033) translate(46.074999999999996 37.1)"/><path d="M312.38 163.4c17.34 0 31.4 17.14 31.4 38.3 0 21.15-14.06 38.3-31.4 38.3h-94.2c-17.33 0-31.4-17.15-31.4-38.3 0-21.16 14.07-38.3 31.4-38.3z" stroke="#000" stroke-width="2" fill="#fff"/><use xlink:href="#d" transform="matrix(1,0,0,1,191.79245283018867,168.39622641509436) translate(39.05 26.299999999999997)"/><use xlink:href="#b" transform="matrix(1,0,0,1,191.79245283018867,168.39622641509436) translate(32.574999999999996 47.9)"/><path d="M265.28 162.4v-37.3H88.68v-19.07" stroke="#000" stroke-width="2" fill="none"/><path d="M266.28 163.4h-2v-1h2zM93.3 105.3h-9.26l4.64-14.27z"/><path d="M94.7 106.3H82.66l6-18.5zm-9.28-2h6.52l-3.26-10.04z"/><path d="M245.66 125.1H461.5v-19.07" stroke="#000" stroke-width="2" fill="none"/><path d="M466.14 105.3h-9.27l4.64-14.27z"/><path d="M467.52 106.3H455.5l6-18.5zm-9.27-2h6.52l-3.26-10.04z"/><path d="M196.6 29.34h122.5V10.2l34.48 38.3-34.47 38.3V67.63H196.6z" stroke="#000" stroke-width="2" fill="#fff"/><defs><path d="M137 0h-34L2-248h35l83 218 83-218h36" id="e"/><path d="M27 0v-27h64v-190l-56 39v-29l58-41h29v221h61V0H27" id="f"/><g id="a"><use transform="matrix(0.05,0,0,0.05,0,0)" xlink:href="#e"/><use transform="matrix(0.05,0,0,0.05,12,0)" xlink:href="#f"/></g><path d="M127-220V0H93v-220H8v-28h204v28h-85" id="g"/><path d="M100-194c63 0 86 42 84 106H49c0 40 14 67 53 68 26 1 43-12 49-29l28 8c-11 28-37 45-77 45C44 4 14-33 15-96c1-61 26-98 85-98zm52 81c6-60-76-77-97-28-3 7-6 17-6 28h103" id="h"/><path d="M210-169c-67 3-38 105-44 169h-31v-121c0-29-5-50-35-48C34-165 62-65 56 0H25l-1-190h30c1 10-1 24 2 32 10-44 99-50 107 0 11-21 27-35 58-36 85-2 47 119 55 194h-31v-121c0-29-5-49-35-48" id="i"/><path d="M115-194c55 1 70 41 70 98S169 2 115 4C84 4 66-9 55-30l1 105H24l-1-265h31l2 30c10-21 28-34 59-34zm-8 174c40 0 45-34 45-75s-6-73-45-74c-42 0-51 32-51 76 0 43 10 73 51 73" id="j"/><path d="M24 0v-261h32V0H24" id="k"/><path d="M141-36C126-15 110 5 73 4 37 3 15-17 15-53c-1-64 63-63 125-63 3-35-9-54-41-54-24 1-41 7-42 31l-33-3c5-37 33-52 76-52 45 0 72 20 72 64v82c-1 20 7 32 28 27v20c-31 9-61-2-59-35zM48-53c0 20 12 33 32 33 41-3 63-29 60-74-43 2-92-5-92 41" id="l"/><path d="M59-47c-2 24 18 29 38 22v24C64 9 27 4 27-40v-127H5v-23h24l9-43h21v43h35v23H59v120" id="m"/><path d="M135-143c-3-34-86-38-87 0 15 53 115 12 119 90S17 21 10-45l28-5c4 36 97 45 98 0-10-56-113-15-118-90-4-57 82-63 122-42 12 7 21 19 24 35" id="n"/><g id="b"><use transform="matrix(0.05,0,0,0.05,0,0)" xlink:href="#g"/><use transform="matrix(0.05,0,0,0.05,8.950000000000001,0)" xlink:href="#h"/><use transform="matrix(0.05,0,0,0.05,18.950000000000003,0)" xlink:href="#i"/><use transform="matrix(0.05,0,0,0.05,33.900000000000006,0)" xlink:href="#j"/><use transform="matrix(0.05,0,0,0.05,43.900000000000006,0)" xlink:href="#k"/><use transform="matrix(0.05,0,0,0.05,47.85000000000001,0)" xlink:href="#l"/><use transform="matrix(0.05,0,0,0.05,57.85,0)" xlink:href="#m"/><use transform="matrix(0.05,0,0,0.05,62.85,0)" xlink:href="#h"/><use transform="matrix(0.05,0,0,0.05,72.85000000000001,0)" xlink:href="#n"/></g><path d="M101-251c82-7 93 87 43 132L82-64C71-53 59-42 53-27h129V0H18c2-99 128-94 128-182 0-28-16-43-45-43s-46 15-49 41l-32-3c6-41 34-60 81-64" id="o"/><g id="c"><use transform="matrix(0.05,0,0,0.05,0,0)" xlink:href="#e"/><use transform="matrix(0.05,0,0,0.05,12,0)" xlink:href="#o"/></g><path d="M232-93c-1 65-40 97-104 97C67 4 28-28 28-90v-158h33c8 89-33 224 67 224 102 0 64-133 71-224h33v155" id="p"/><path d="M177-190C167-65 218 103 67 71c-23-6-38-20-44-43l32-5c15 47 100 32 89-28v-30C133-14 115 1 83 1 29 1 15-40 15-95c0-56 16-97 71-98 29-1 48 16 59 35 1-10 0-23 2-32h30zM94-22c36 0 50-32 50-73 0-42-14-75-50-75-39 0-46 34-46 75s6 73 46 73" id="q"/><path d="M114-163C36-179 61-72 57 0H25l-1-190h30c1 12-1 29 2 39 6-27 23-49 58-41v29" id="r"/><path d="M85-194c31 0 48 13 60 33l-1-100h32l1 261h-30c-2-10 0-23-3-31C134-8 116 4 85 4 32 4 16-35 15-94c0-66 23-100 70-100zm9 24c-40 0-46 34-46 75 0 40 6 74 45 74 42 0 51-32 51-76 0-42-9-74-50-73" id="s"/><g id="d"><use transform="matrix(0.05,0,0,0.05,0,0)" xlink:href="#p"/><use transform="matrix(0.05,0,0,0.05,12.950000000000001,0)" xlink:href="#j"/><use transform="matrix(0.05,0,0,0.05,22.950000000000003,0)" xlink:href="#q"/><use transform="matrix(0.05,0,0,0.05,32.95,0)" xlink:href="#r"/><use transform="matrix(0.05,0,0,0.05,38.900000000000006,0)" xlink:href="#l"/><use transform="matrix(0.05,0,0,0.05,48.900000000000006,0)" xlink:href="#s"/><use transform="matrix(0.05,0,0,0.05,58.900000000000006,0)" xlink:href="#h"/></g></defs></g></svg>